<?xml version="1.0" encoding="utf-8"?>
<!-- Generator: Adobe Illustrator 23.0.2, SVG Export Plug-In . SVG Version: 6.00 Build 0)  -->
<svg version="1.1" id="Layer_1" xmlns="http://www.w3.org/2000/svg" xmlns:xlink="http://www.w3.org/1999/xlink" x="0px" y="0px"
	 viewBox="0 0 48 60" style="enable-background:new 0 0 48 60;" xml:space="preserve">
<style type="text/css">
	.st0{fill:#FFFFFF;}
</style>
<path class="st0" d="M11,6h10v2H11V6z"/>
<path class="st0" d="M11,10h2v2h-2V10z"/>
<path class="st0" d="M15,10h2v2h-2V10z"/>
<path class="st0" d="M42.7,8.3l-8-8C34.5,0.1,34.3,0,34,0H8C6.3,0,5,1.3,5,3l0,0v42c0,1.7,1.3,3,3,3h32c1.7,0,3-1.3,3-3V9
	C43,8.7,42.9,8.5,42.7,8.3z M41,45c0,0.6-0.4,1-1,1H8c-0.6,0-1-0.4-1-1V3c0-0.6,0.4-1,1-1h25v5c0,1.7,1.3,3,3,3h2V8h-2
	c-0.6,0-1-0.4-1-1V3.4l6,6V45z"/>
<path class="st0" d="M23,41c-6.1,0-11-4.9-11-11s4.9-11,11-11v-2c-7.2,0-13,5.8-13,13s5.8,13,13,13s13-5.8,13-13h-2
	C34,36.1,29.1,41,23,41z"/>
<path class="st0" d="M37,15H27c-0.6,0-1,0.4-1,1v9h-4c-1.1,0-2,0.9-2,2v2c0,1.1,0.9,2,2,2h4c1.1,0,2-0.9,2-2V17h8v4h-4
	c-1.1,0-2,0.9-2,2v2c0,1.1,0.9,2,2,2h4c1.1,0,2-0.9,2-2v-9C38,15.4,37.6,15,37,15z M26,29h-4v-2h4V29z M36,25h-4v-2h4V25z"/>
</svg>
