<?xml version="1.0" encoding="utf-8"?>
<!-- Generator: Adobe Illustrator 23.0.2, SVG Export Plug-In . SVG Version: 6.00 Build 0)  -->
<svg version="1.1" id="Layer_1" xmlns="http://www.w3.org/2000/svg" xmlns:xlink="http://www.w3.org/1999/xlink" x="0px" y="0px"
	 viewBox="0 0 48 60" style="enable-background:new 0 0 48 60;" xml:space="preserve">
<style type="text/css">
	.st0{fill:#FFFFFF;}
</style>
<path class="st0" d="M8,6h10v2H8V6z"/>
<path class="st0" d="M8,10h2v2H8V10z"/>
<path class="st0" d="M12,10h2v2h-2V10z"/>
<path class="st0" d="M38,45c0,0.6-0.4,1-1,1H5c-0.6,0-1-0.4-1-1V3c0-0.6,0.4-1,1-1h25v5c0,1.7,1.3,3,3,3h2V8h-2c-0.6,0-1-0.4-1-1
	V3.4l6,6V13h2V9c0-0.3-0.1-0.5-0.3-0.7l-8-8C31.5,0.1,31.3,0,31,0H5C3.3,0,2,1.3,2,3l0,0v42c0,1.7,1.3,3,3,3h32c1.7,0,3-1.3,3-3v-1
	h-2V45z"/>
<path class="st0" d="M43,38c0,0.6-0.4,1-1,1H18c-0.6,0-1-0.4-1-1V26c0-0.6,0.4-1,1-1v-2c-1.7,0-3,1.3-3,3v2.4l-4.6-2.3
	c-0.5-0.2-1.1,0-1.3,0.4C9,26.7,9,26.8,9,27v10c0,0.6,0.4,1,1,1c0.2,0,0.3,0,0.5-0.1l4.6-2.3V38c0,1.7,1.3,3,3,3h24c1.7,0,3-1.3,3-3
	v-7h-2L43,38L43,38z M11,35.4v-6.8l4,2v2.8L11,35.4z"/>
<path class="st0" d="M33,19.4c-2-3.3-6.3-4.4-9.6-2.4S19,23.3,21,26.6s6.3,4.4,9.6,2.4c1-0.6,1.8-1.4,2.4-2.4c2,3.3,6.3,4.4,9.6,2.4
	s4.4-6.3,2.4-9.6S38.7,15,35.4,17C34.4,17.6,33.6,18.4,33,19.4z M27,28c-2.8,0-5-2.2-5-5s2.2-5,5-5s5,2.2,5,5S29.8,28,27,28z M44,23
	c0,2.8-2.2,5-5,5s-5-2.2-5-5s2.2-5,5-5S44,20.2,44,23z"/>
<path class="st0" d="M32,36v-2c0-0.6-0.4-1-1-1H21c-0.6,0-1,0.4-1,1v2h2v-1h8v1H32z"/>
<path class="st0" d="M27,20c-1.7,0-3,1.3-3,3s1.3,3,3,3s3-1.3,3-3S28.7,20,27,20z M27,24c-0.6,0-1-0.4-1-1s0.4-1,1-1s1,0.4,1,1
	S27.6,24,27,24z"/>
<path class="st0" d="M36,23c0,1.7,1.3,3,3,3s3-1.3,3-3s-1.3-3-3-3S36,21.3,36,23z M40,23c0,0.6-0.4,1-1,1s-1-0.4-1-1s0.4-1,1-1
	S40,22.4,40,23z"/>
<path class="st0" d="M38,34h2v2h-2V34z"/>
<path class="st0" d="M34,34h2v2h-2V34z"/>
</svg>
