<?xml version="1.0" encoding="utf-8"?>
<!-- Generator: Adobe Illustrator 23.0.2, SVG Export Plug-In . SVG Version: 6.00 Build 0)  -->
<svg version="1.1" id="Layer_1" xmlns="http://www.w3.org/2000/svg" xmlns:xlink="http://www.w3.org/1999/xlink" x="0px" y="0px"
	 viewBox="0 0 48 60" style="enable-background:new 0 0 48 60;" xml:space="preserve">
<style type="text/css">
	.st0{fill:#FFFFFF;}
</style>
<path class="st0" d="M11,6h10v2H11V6z"/>
<path class="st0" d="M11,10h2v2h-2V10z"/>
<path class="st0" d="M15,10h2v2h-2V10z"/>
<path class="st0" d="M42.7,8.3l-8-8C34.5,0.1,34.3,0,34,0H8C6.3,0,5,1.3,5,3l0,0v42c0,1.7,1.3,3,3,3h32c1.7,0,3-1.3,3-3V9
	C43,8.7,42.9,8.5,42.7,8.3z M41,45c0,0.6-0.4,1-1,1H8c-0.6,0-1-0.4-1-1V3c0-0.6,0.4-1,1-1h25v5c0,1.7,1.3,3,3,3h2V8h-2
	c-0.6,0-1-0.4-1-1V3.4l6,6V45z"/>
<path class="st0" d="M34,18h-4v2h4c0.6,0,1,0.4,1,1v10.6l-5.3-5.3c-0.4-0.4-1-0.4-1.4,0l-3,3l1.4,1.4l2.3-2.3l6,6V37
	c0,0.6-0.4,1-1,1H14c-0.6,0-1-0.4-1-1v-0.7l7-7l6.3,6.3l1.4-1.4l-7-7c-0.4-0.4-1-0.4-1.4,0L13,33.5V21c0-0.6,0.4-1,1-1h2v-2h-2
	c-1.7,0-3,1.3-3,3v16c0,1.7,1.3,3,3,3h20c1.7,0,3-1.3,3-3V21C37,19.3,35.7,18,34,18z"/>
<path class="st0" d="M19,20c0,2.2,1.8,4,4,4s4-1.8,4-4s-1.8-4-4-4S19,17.8,19,20z M23,18c1.1,0,2,0.9,2,2s-0.9,2-2,2s-2-0.9-2-2
	S21.9,18,23,18z"/>
</svg>
