<?xml version="1.0" encoding="utf-8"?>
<!-- Generator: Adobe Illustrator 23.0.2, SVG Export Plug-In . SVG Version: 6.00 Build 0)  -->
<svg version="1.1" id="Layer_1" xmlns="http://www.w3.org/2000/svg" xmlns:xlink="http://www.w3.org/1999/xlink" x="0px" y="0px"
	 viewBox="0 0 48 60" style="enable-background:new 0 0 48 60;" xml:space="preserve">
<style type="text/css">
	.st0{fill:#FFFFFF;}
</style>
<path class="st0" d="M11,6h10v2H11V6z"/>
<path class="st0" d="M11,10h2v2h-2V10z"/>
<path class="st0" d="M15,10h2v2h-2V10z"/>
<path class="st0" d="M42.7,8.3l-8-8C34.5,0.1,34.3,0,34,0H8C6.3,0,5,1.3,5,3l0,0v42c0,1.7,1.3,3,3,3h32c1.7,0,3-1.3,3-3V9
	C43,8.7,42.9,8.5,42.7,8.3z M41,45c0,0.6-0.4,1-1,1H8c-0.6,0-1-0.4-1-1V3c0-0.6,0.4-1,1-1h25v5c0,1.7,1.3,3,3,3h2V8h-2
	c-0.6,0-1-0.4-1-1V3.4l6,6V45z"/>
<path class="st0" d="M33,16H19c0,0,0,0-0.1,0s-0.2,0-0.3,0.1h-0.1c-0.1,0-0.2,0.1-0.3,0.2l-6,6C12.1,22.5,12,22.7,12,23v16
	c0,1.7,1.3,3,3,3h18c1.7,0,3-1.3,3-3V19C36,17.3,34.7,16,33,16z M34,39c0,0.6-0.4,1-1,1H15c-0.6,0-1-0.4-1-1V23.4l4-4V21
	c0,0.6-0.4,1-1,1v2c1.7,0,3-1.3,3-3v-3h13c0.6,0,1,0.4,1,1V39z"/>
<path class="st0" d="M18,29h12v2H18V29z"/>
<path class="st0" d="M18,34h12v2H18V34z"/>
<path class="st0" d="M25,24h5v2h-5V24z"/>
</svg>
